<?xml version="1.0" encoding="utf-8"?>
<svg version="1.1" xmlns="http://www.w3.org/2000/svg" viewBox="0 0 1440 810" style="enable-background:new 0 0 1440 810;">
<style type="text/css">
	.st0{fill:#FFFFFF;}
	.st1{fill:#FCB46D;}
</style>
<g transform="translate(-240, -135)">
	<path class="st0" d="M1574.73,684.49c-21.26,0-41.8,0-62.72,0c0-8.91,0-16.84,0-25.4c34.5,0,68.85,0,103.72,0
		c0.22,1.36,0.72,2.97,0.72,4.58c0.01,37.95-0.26,75.91,0.11,113.86c0.08,8.16-3.19,13.34-9.05,18.22
		c-20.32,16.93-44.14,25.73-69.93,28.1c-33.04,3.03-65.18-1.78-95.43-16.38c-38.76-18.71-59.3-51.06-67.98-91.82
		c-10.51-49.36-2.12-95.32,28.13-136.14c22.29-30.09,52.57-48.5,90.21-50.08c40.97-1.72,82.07-0.39,124.55-0.39
		c-4.6,9.96-7.93,19.49-13.29,27.69c-2.41,3.68-8.88,6.52-13.55,6.59c-24.43,0.35-48.87-0.49-73.31-0.52
		c-9.74-0.01-19.62,0.15-29.2,1.71c-33.66,5.49-53.29,27.63-64.22,57.95c-12.75,35.35-12.64,71.6-1.11,107.18
		c14.4,44.41,52.75,68.82,102.27,65.39c12.25-0.85,24.78-4.29,36.08-9.12c5.46-2.33,9.35-10.2,12.12-16.39
		c2.11-4.72,1.76-10.72,1.8-16.16C1574.83,730.73,1574.73,708.1,1574.73,684.49z"/>
	<path class="st0" d="M1037.1,532.05c42.95,1.57,85.83-6.16,127.7,7.26c51.83,16.61,79,53.97,89.2,105.64
		c5.74,29.06,2.98,57.79-5.55,85.76c-14.48,47.48-48.13,75-95.98,82.58c-28.39,4.5-57.75,2.95-86.69,3.93
		c-9.4,0.32-18.83,0.05-28.69,0.05C1037.1,721.76,1037.1,627.35,1037.1,532.05z M1080.15,796.64c12.66,0,24.98,0.77,37.17-0.14
		c40.08-3,71.26-21.33,86.63-64.31c12.79-35.77,11.41-72.1,1.18-108.13c-6.33-22.3-18.76-41.01-37.54-55.13
		c-26.36-19.83-56.84-17.66-87.44-17.11C1080.15,633.76,1080.15,714.92,1080.15,796.64z"/>
	<path class="st0" d="M542.95,532.6c40.4,0,79.49-1.16,118.48,0.34c36.92,1.42,66.43,28,71.36,60.87
		c6.07,40.46-11.62,71.75-49.49,87.22c-6.85,2.8-13.96,4.96-21.57,7.63c26.05,42.64,51.94,85,78.62,128.68
		c-14.99,0-28.38,0.13-41.76-0.15c-1.79-0.04-4.21-1.72-5.19-3.34c-28.19-46.2-56.23-92.49-84.26-138.79
		c-0.23-0.38,0.03-1.05,0.14-3.19c10.41,0,21.14,1.4,31.38-0.26c31.77-5.13,50.65-31.74,48.27-65.73
		c-1.46-20.82-7.54-39.29-27.53-49.02c-7.93-3.86-17.49-5.4-26.43-5.92c-16.02-0.92-32.13-0.26-49.31-0.26
		c0,88.77,0,177.17,0,266.12c-14.77,0-28.45,0-42.71,0C542.95,722.24,542.95,627.58,542.95,532.6z"/>
	<path class="st0" d="M756.28,685.97c2.77-61.51,23.07-109.53,73.62-140.29c31.71-19.3,67.08-23.7,102.87-14.15
		c41.15,10.99,61.67,42.05,72.76,80.89c5.74,20.09,5.34,39.27-2.47,59.38c-13.74,35.41-26.14,71.41-37.28,107.72
		c-6.09,19.86-19.02,30.68-37.15,36.79c-43.58,14.7-85.08,10.29-122.37-17.28c-24.29-17.95-36.68-44.41-43.77-73.03
		C758.93,711.65,757.87,696.67,756.28,685.97z M801.61,683.94c-0.57,19.04,1.6,38.93,9.05,57.86
		c11.51,29.24,30.73,49.51,63.91,52.43c29.74,2.62,51.2-11.52,65.78-35.69c31.54-52.27,37.23-108.02,14.72-164.73
		c-16.94-42.67-44.25-51.53-83.77-43.67c-22.95,4.57-37.54,21.32-48.58,40.82C806.64,619.38,801.58,650.53,801.61,683.94z"/>
	<path class="st0" d="M361.55,708.62c0,36.68,0,72,0,108.03c-14.28,0-28.13,0-42.89,0c0-3.12,0-6.18,0-9.25
		c0.02-74.44-0.22-148.89,0.3-223.33c0.1-14.24-2.22-27.14-9.56-39.25c-2.19-3.61-3.79-7.58-6.45-12.99
		c9.97,0,18.96-0.05,27.94,0.01c34.73,0.23,69.57-1.17,104.15,1.16c46.63,3.14,77.6,40.97,76.17,87.46
		c-1.42,46.3-33.1,86.42-91.89,88.08C400.44,709.07,381.52,708.62,361.55,708.62z M362.06,689.55c21.76-0.67,43.74,2.88,65.16-4.7
		c15.17-5.37,26.29-15.45,32.52-30.04c9.47-22.19,10.44-45.11,1.96-67.83c-6.74-18.06-19.32-31.9-38.71-34.14
		c-19.95-2.3-40.38-0.51-60.92-0.51C362.06,597.56,362.06,642.93,362.06,689.55z"/>
	<path class="st0" d="M1333.83,817.04c-13.99,0-27.43,0-41.45,0c0-95.24,0-190.17,0-285.62c13.87,0,27.29,0,41.45,0
		C1333.83,626.33,1333.83,721.29,1333.83,817.04z"/>
	<path class="st1" d="M798.75,136.41c2.48-0.14,4.45-0.36,6.42-0.35c58.08,0.37,116.17,0.04,174.23,1.33
		c66.26,1.47,124.85,51.99,137.77,117.63c9.64,49,3,95.15-28.66,135.11c-28.64,36.14-66.62,55.33-113.19,56.12
		c-17.51,0.3-35.04,0.05-53.44,0.05c0,11.3,0-11.55,0,0c-13.95,0-27.03,0-42,0c0-19.58,0-5.39,0-25.06c0-19.54,0-39.08,0-59.13
		c-13.15,0-26.24,0-40.3,0c0,27.47,0,54.91,0,83.04c-14.02,0-27.08,0-40.84,0C798.75,342.34,798.75,239.84,798.75,136.41z
		M921.27,404.34c17.01,0,33.06,0.16,49.11-0.04c28.43-0.35,53.46-10.01,74.1-29.49c26.68-25.18,35.75-56.84,33.49-92.95
		c-3.58-57.33-49.16-101.3-106.51-101.48c-41.11-0.13-82.22-0.04-123.33-0.01c-2.49,0-4.98,0.29-8.03,0.49
		c0,46.64,0,92.73,0,138.7c13.59,0,26.62,0,40.68,0c0-32.97,0-65.3,0-97.73c33.8,0,66.55-0.01,99.3,0.03
		c1.98,0,4.02,0.27,5.93,0.78c46.37,12.17,68.01,69.69,40.92,109.38c-14.17,20.76-35.26,29.59-59.44,31.14
		c-15.34,0.98-30.79,0.18-46.24,0.18C921.27,377.37,921.27,390.23,921.27,404.34z M921.13,320.09c17.51,0,34.19,0.89,50.73-0.26
		c14.91-1.03,25.56-12.33,26.38-25.11c0.89-13.84-7.65-27.65-21.43-28.99c-18.36-1.79-37.03-0.44-55.68-0.44
		C921.13,282.96,921.13,301.01,921.13,320.09z"/>
	<g>
		<path class="st0" d="M411.54,891.37c3.26-0.54,7.53-1.01,12.97-1.01c6.68,0,11.57,1.55,14.68,4.35c2.87,2.49,4.58,6.29,4.58,10.95
			c0,4.74-1.4,8.47-4.04,11.18c-3.57,3.8-9.4,5.75-16,5.75c-2.02,0-3.88-0.08-5.44-0.47v20.97h-6.76V891.37z M418.29,916.61
			c1.48,0.39,3.34,0.54,5.59,0.54c8.15,0,13.12-3.96,13.12-11.18c0-6.91-4.89-10.25-12.35-10.25c-2.95,0-5.2,0.23-6.37,0.54V916.61z"/>
		<path class="st0" d="M460.46,891.45c3.42-0.7,8.31-1.09,12.97-1.09c7.22,0,11.88,1.32,15.14,4.27c2.64,2.33,4.12,5.9,4.12,9.94
			c0,6.91-4.35,11.49-9.86,13.36v0.23c4.04,1.4,6.45,5.12,7.69,10.56c1.71,7.3,2.95,12.35,4.04,14.37h-6.99
			c-0.85-1.47-2.02-5.98-3.49-12.5c-1.55-7.22-4.35-9.94-10.48-10.17h-6.37v22.68h-6.76V891.45z M467.22,915.29h6.91
			c7.22,0,11.8-3.96,11.8-9.94c0-6.76-4.89-9.71-12.04-9.78c-3.26,0-5.59,0.31-6.68,0.62V915.29z"/>
		<path class="st0" d="M554.82,916.38c0,18.02-10.95,27.57-24.31,27.57c-13.82,0-23.53-10.72-23.53-26.56
			c0-16.62,10.33-27.49,24.31-27.49C545.58,889.89,554.82,900.84,554.82,916.38z M514.2,917.23c0,11.18,6.06,21.2,16.7,21.2
			c10.72,0,16.77-9.86,16.77-21.74c0-10.41-5.44-21.28-16.7-21.28C519.79,895.41,514.2,905.74,514.2,917.23z"/>
		<path class="st0" d="M571.2,890.75h28.19v5.67h-21.43v17.4h19.8v5.59h-19.8v23.69h-6.76V890.75z"/>
		<path class="st0" d="M643.74,918.55h-20.35v18.87h22.68v5.67h-29.43v-52.34h28.27v5.67h-21.51v16.54h20.35V918.55z"/>
		<path class="st0" d="M661.52,934.86c3.03,1.86,7.46,3.42,12.11,3.42c6.91,0,10.95-3.65,10.95-8.93c0-4.89-2.8-7.69-9.86-10.41
			c-8.54-3.03-13.82-7.46-13.82-14.83c0-8.15,6.76-14.21,16.93-14.21c5.36,0,9.24,1.24,11.57,2.56l-1.86,5.51
			c-1.71-0.93-5.2-2.49-9.94-2.49c-7.14,0-9.86,4.27-9.86,7.84c0,4.89,3.18,7.3,10.41,10.1c8.85,3.42,13.36,7.69,13.36,15.38
			c0,8.08-5.98,15.07-18.33,15.07c-5.05,0-10.56-1.48-13.36-3.34L661.52,934.86z"/>
		<path class="st0" d="M707.42,934.86c3.03,1.86,7.45,3.42,12.11,3.42c6.91,0,10.95-3.65,10.95-8.93c0-4.89-2.8-7.69-9.86-10.41
			c-8.54-3.03-13.82-7.46-13.82-14.83c0-8.15,6.76-14.21,16.93-14.21c5.36,0,9.24,1.24,11.57,2.56l-1.86,5.51
			c-1.71-0.93-5.2-2.49-9.94-2.49c-7.14,0-9.86,4.27-9.86,7.84c0,4.89,3.18,7.3,10.41,10.1c8.85,3.42,13.36,7.69,13.36,15.38
			c0,8.08-5.98,15.07-18.33,15.07c-5.05,0-10.56-1.48-13.36-3.34L707.42,934.86z"/>
		<path class="st0" d="M761,890.75v52.34h-6.76v-52.34H761z"/>
		<path class="st0" d="M825.15,916.38c0,18.02-10.95,27.57-24.31,27.57c-13.82,0-23.53-10.72-23.53-26.56
			c0-16.62,10.33-27.49,24.31-27.49C815.91,889.89,825.15,900.84,825.15,916.38z M784.53,917.23c0,11.18,6.06,21.2,16.7,21.2
			c10.72,0,16.77-9.86,16.77-21.74c0-10.41-5.44-21.28-16.7-21.28C790.12,895.41,784.53,905.74,784.53,917.23z"/>
		<path class="st0" d="M841.54,943.09v-52.34h7.38l16.77,26.48c3.88,6.13,6.91,11.65,9.4,17.01l0.16-0.08
			c-0.62-6.99-0.78-13.36-0.78-21.51v-21.9h6.37v52.34H874l-16.62-26.56c-3.65-5.82-7.14-11.8-9.78-17.47l-0.23,0.08
			c0.39,6.6,0.54,12.89,0.54,21.59v22.37H841.54z"/>
		<path class="st0" d="M900.24,943.09v-52.34h7.38l16.77,26.48c3.88,6.13,6.91,11.65,9.4,17.01l0.16-0.08
			c-0.62-6.99-0.78-13.36-0.78-21.51v-21.9h6.37v52.34h-6.83l-16.62-26.56c-3.65-5.82-7.14-11.8-9.78-17.47l-0.23,0.08
			c0.39,6.6,0.54,12.89,0.54,21.59v22.37H900.24z"/>
		<path class="st0" d="M986.05,918.55h-20.35v18.87h22.68v5.67h-29.43v-52.34h28.27v5.67h-21.51v16.54h20.35V918.55z"/>
		<path class="st0" d="M1004.77,890.75h6.76v46.67h22.36v5.67h-29.12V890.75z"/>
		<path class="st0" d="M1073.11,891.45c4.12-0.62,9.01-1.09,14.37-1.09c9.71,0,16.62,2.25,21.2,6.52c4.66,4.27,7.38,10.33,7.38,18.79
			c0,8.54-2.64,15.53-7.53,20.35c-4.89,4.89-12.97,7.53-23.14,7.53c-4.81,0-8.85-0.23-12.27-0.62V891.45z M1079.87,937.73
			c1.71,0.31,4.19,0.39,6.83,0.39c14.44,0,22.29-8.08,22.29-22.21c0.08-12.35-6.91-20.19-21.2-20.19c-3.5,0-6.13,0.31-7.92,0.7
			V937.73z"/>
		<path class="st0" d="M1139.2,890.75v30.99c0,11.72,5.2,16.69,12.19,16.69c7.77,0,12.74-5.13,12.74-16.69v-30.99h6.83v30.52
			c0,16.07-8.47,22.68-19.8,22.68c-10.72,0-18.79-6.13-18.79-22.37v-30.83H1139.2z"/>
		<path class="st0" d="M1214.37,891.45c4.12-0.62,9.01-1.09,14.37-1.09c9.71,0,16.62,2.25,21.2,6.52c4.66,4.27,7.38,10.33,7.38,18.79
			c0,8.54-2.64,15.53-7.53,20.35c-4.89,4.89-12.97,7.53-23.14,7.53c-4.81,0-8.85-0.23-12.27-0.62V891.45z M1221.13,937.73
			c1.71,0.31,4.19,0.39,6.83,0.39c14.44,0,22.29-8.08,22.29-22.21c0.08-12.35-6.91-20.19-21.2-20.19c-3.5,0-6.13,0.31-7.92,0.7
			V937.73z"/>
		<path class="st0" d="M1280.46,890.75v52.34h-6.76v-52.34H1280.46z"/>
		<path class="st0" d="M1339.71,940.76c-3.03,1.09-9.01,2.87-16.07,2.87c-7.92,0-14.44-2.02-19.57-6.91
			c-4.5-4.35-7.3-11.34-7.3-19.49c0.08-15.61,10.79-27.02,28.34-27.02c6.06,0,10.79,1.32,13.05,2.41l-1.63,5.51
			c-2.8-1.24-6.29-2.25-11.57-2.25c-12.74,0-21.04,7.92-21.04,21.04c0,13.28,8,21.12,20.19,21.12c4.43,0,7.46-0.62,9.01-1.4v-15.61
			h-10.64v-5.44h17.24V940.76z"/>
		<path class="st0" d="M1364.41,890.75v52.34h-6.76v-52.34H1364.41z"/>
		<path class="st0" d="M1393.76,896.5h-15.92v-5.75h38.75v5.75h-16v46.59h-6.83V896.5z"/>
		<path class="st0" d="M1432.67,926.63l-5.44,16.46h-6.99l17.78-52.34h8.15l17.86,52.34h-7.22l-5.59-16.46H1432.67z M1449.83,921.35
			l-5.13-15.07c-1.17-3.42-1.94-6.52-2.72-9.55h-0.16c-0.78,3.11-1.63,6.29-2.64,9.47l-5.13,15.14H1449.83z"/>
		<path class="st0" d="M1479.34,890.75h6.76v46.67h22.36v5.67h-29.12V890.75z"/>
	</g>
</g>
</svg>
